<?xml version="1.0" encoding="UTF-8" standalone="no"?>
<svg
   xmlns:dc="http://purl.org/dc/elements/1.1/"
   xmlns:cc="http://creativecommons.org/ns#"
   xmlns:rdf="http://www.w3.org/1999/02/22-rdf-syntax-ns#"
   xmlns:svg="http://www.w3.org/2000/svg"
   xmlns="http://www.w3.org/2000/svg"
   xmlns:sodipodi="http://sodipodi.sourceforge.net/DTD/sodipodi-0.dtd"
   xmlns:inkscape="http://www.inkscape.org/namespaces/inkscape"
   viewBox="0 0 288 512"
   version="1.1"
   id="svg4"
   sodipodi:docname="pin_icon.svg"
   inkscape:version="0.92.3 (2405546, 2018-03-11)"
   inkscape:export-filename="C:\Users\solik\Desktop\pin_icon.png"
   inkscape:export-xdpi="4.6875882"
   inkscape:export-ydpi="4.6875882">
  <metadata
     id="metadata10">
    <rdf:RDF>
      <cc:Work
         rdf:about="">
        <dc:format>image/svg+xml</dc:format>
        <dc:type
           rdf:resource="http://purl.org/dc/dcmitype/StillImage" />
        <dc:title />
      </cc:Work>
    </rdf:RDF>
  </metadata>
  <defs
     id="defs8" />
  <sodipodi:namedview
     pagecolor="#ffffff"
     bordercolor="#666666"
     borderopacity="1"
     objecttolerance="10"
     gridtolerance="10"
     guidetolerance="10"
     inkscape:pageopacity="0"
     inkscape:pageshadow="2"
     inkscape:window-width="1680"
     inkscape:window-height="987"
     id="namedview6"
     showgrid="false"
     inkscape:zoom="0.65186406"
     inkscape:cx="-211.9251"
     inkscape:cy="299.21214"
     inkscape:window-x="1912"
     inkscape:window-y="13"
     inkscape:window-maximized="1"
     inkscape:current-layer="svg4" />
  <path
     d="M 144 0 C 64.47 0 0 64.47 0 144 C 0 212.53123 47.87253 269.87419 112 284.42578 L 112 473.63086 L 134.01953 506.65039 C 138.76953 513.77039 149.24023 513.77039 153.99023 506.65039 L 176 473.63086 L 176 284.42578 C 240.12747 269.87419 288 212.53123 288 144 C 288 64.47 223.53 0 144 0 z M 144 52 C 150.62 52 156 57.38 156 64 C 156 70.62 150.62 76 144 76 C 106.5 76 76 106.5 76 144 C 76 150.62 70.62 156 64 156 C 57.38 156 52 150.62 52 144 C 52 93.27 93.28 52 144 52 z "
     id="path2"
     inkscape:export-xdpi="4.6875882"
     inkscape:export-ydpi="4.6875882" />
</svg>
